#!OML:ASF E:\motion texture\Top Level 1\Subject 1\Session 1\male.ASF
:FULLY-SPECIFIED
:DEGREES
285
root -7.75673 18.0237 6.03691 138.997 -83.8489 -133.735
lowerback -0.934753 -0.249666 1.29848
upperback -1.29157 -0.372611 3.20172
thorax -0.786212 -0.204922 2.55574
lowerneck -7.23 -8.15197 -7.60209
upperneck 15.9427 -12.3571 10.6554
head 7.20148 -5.74087 3.54936
rclavicle -8.93289e-015 -4.25399e-014
rhumerus -22.9908 1.77567 -71.6311
rradius 74.7495
rwrist -18.9334
rhand -11.9173 -37.4059
rfingers 7.12502
rthumb 14.1367 -66.905
lclavicle -8.93289e-015 -4.25399e-014
lhumerus -19.7368 -5.91481 88.7187
lradius 56.55
lwrist 12.8829
lhand -13.0307 34.0852
lfingers 7.12502
lthumb 13.0636 63.656
rfemur -17.4064 -4.5602 21.3628
rtibia 62.516
rfoot 5.05006 -19.8471
rtoes 9.22537
lfemur -16.7644 -1.34724 -15.9171
ltibia 18.3053
lfoot -3.58921 2.12973
ltoes 1.47159
286
root -7.88998 18.0357 6.05206 138.618 -83.8711 -133.398
lowerback -0.927483 -0.289365 1.27124
upperback -1.26678 -0.426045 3.22007
thorax -0.762682 -0.231459 2.58973
lowerneck -7.12294 -8.22909 -7.66704
upperneck 15.4898 -12.4573 10.9437
head 7.07029 -5.78292 3.64809
rclavicle 1.23868e-014 2.46493e-014
rhumerus -24.0549 3.10956 -72.9594
rradius 75.0011
rwrist -19.0264
rhand -12.1944 -37.6237
rfingers 7.12502
rthumb 13.8697 -67.1412
lclavicle 1.23868e-014 2.46493e-014
lhumerus -20.5527 -6.59385 89.5234
lradius 56.2215
lwrist 12.1027
lhand -13.5919 34.6475
lfingers 7.12502
lthumb 12.5226 64.2523
rfemur -18.3268 -4.86209 21.3483
rtibia 63.1129
rfoot 4.52559 -20.2385
rtoes 9.45373
lfemur -16.1086 -1.40628 -16.0593
ltibia 18.1059
lfoot -3.92967 2.23247
ltoes 1.39731
287
root -8.02272 18.0472 6.06709 138.35 -83.8856 -133.178
lowerback -0.924304 -0.316145 1.24676
upperback -1.24484 -0.462295 3.23538
thorax -0.74036 -0.249433 2.61906
lowerneck -7.01351 -8.3171 -7.73998
upperneck 15.0813 -12.5752 11.2216
head 6.95554 -5.83518 3.7425
rclavicle 8.69683e-015 7.55382e-015
rhumerus -25.1474 4.39705 -74.3588
rradius 75.2489
rwrist -19.1394
rhand -12.4102 -37.8733
rfingers 7.12502
rthumb 13.6617 -67.4049
lclavicle 8.69683e-015 7.55382e-015
lhumerus -21.3213 -7.27158 90.3991
lradius 55.9178
lwrist 11.4456
lhand -14.1297 35.176
lfingers 7.12502
lthumb 12.004 64.8118
rfemur -19.2175 -5.12295 21.3353
rtibia 63.5671
rfoot 4.04102 -20.4309
rtoes 9.59261
lfemur -15.4408 -1.47008 -16.2053
ltibia 17.889
lfoot -4.25596 2.36266
ltoes 1.32559
288
root -8.15482 18.058 6.08186 138.196 -83.9043 -133.078
lowerback -0.913273 -0.335837 1.20811
upperback -1.23027 -0.488527 3.2515
thorax -0.730212 -0.262248 2.65734
lowerneck -6.90582 -8.41327 -7.81912
upperneck 14.7217 -12.7054 11.4763
head 6.85767 -5.8952 3.82859
rclavicle -1.10325e-014 -1.98785e-015
rhumerus -26.2597 5.64557 -75.8239
rradius 75.4832
rwrist -19.2099
rhand -12.5894 -38.1498
rfingers 7.12502
rthumb 13.489 -67.693
lclavicle -1.10325e-014 -1.98785e-015
lhumerus -22.0594 -7.98173 91.3478
lradius 55.665
lwrist 10.9732
lhand -14.6548 35.7358
lfingers 7.12502
lthumb 11.4976 65.4005
rfemur -20.0765 -5.34954 21.3169
rtibia 63.8876
rfoot 3.53768 -20.4552
rtoes 9.68853
lfemur -14.7613 -1.53114 -16.3644
ltibia 17.658
lfoot -4.5723 2.50164
ltoes 1.26997
289
root -8.28606 18.0678 6.09634 138.106 -83.9346 -133.05
lowerback -0.899403 -0.352879 1.16044
upperback -1.21854 -0.510869 3.26245
thorax -0.724633 -0.272989 2.69541
lowerneck -6.79256 -8.51493 -7.90635
upperneck 14.3995 -12.8455 11.7208
head 6.77245 -5.96149 3.9116
rclavicle 4.26145e-015 -1.51076e-014
rhumerus -27.3719 6.85925 -77.361
rradius 75.6925
rwrist -19.22
rhand -12.7719 -38.4712
rfingers 7.12502
rthumb 13.313 -68.0259
lclavicle 4.26145e-015 -1.51076e-014
lhumerus -22.7608 -8.75996 92.3566
lradius 55.464
lwrist 10.7059
lhand -15.07 36.4714
lfingers 7.12502
lthumb 11.0972 66.158
rfemur -20.9018 -5.55074 21.2918
rtibia 64.081
rfoot 3.01055 -20.3524
rtoes 9.73938
lfemur -14.073 -1.58764 -16.538
ltibia 17.4194
lfoot -4.87736 2.6308
ltoes 1.19953
290
root -8.41574 18.0763 6.11007 138.014 -83.9849 -133.019
lowerback -0.882008 -0.373056 1.09226
upperback -1.21213 -0.536999 3.27474
thorax -0.726102 -0.285412 2.74648
lowerneck -6.68746 -8.62217 -8.00242
upperneck 14.1178 -12.9938 11.9479
head 6.70251 -6.03272 3.98886
rclavicle -5.57839e-015 -7.95139e-016
rhumerus -28.4683 8.06155 -78.9583
rradius 75.8681
rwrist -19.1769
rhand -12.9944 -38.8416
rfingers 7.12502
rthumb 13.0986 -68.4102
lclavicle -5.57839e-015 -7.95139e-016
lhumerus -23.4113 -9.62804 93.4288
lradius 55.2999
lwrist 10.6266
lhand -15.3808 37.3526
lfingers 7.12502
lthumb 10.7975 67.0551
rfemur -21.7083 -5.73337 21.2643
rtibia 64.1598
rfoot 2.40769 -20.1778
rtoes 9.6716
lfemur -13.3951 -1.63472 -16.7232
ltibia 17.1826
lfoot -5.1747 2.73632
ltoes 1.13837
